<mxfile host="app.diagrams.net" modified="2021-09-25T00:11:50.526Z" agent="5.0 (Windows NT 10.0; Win64; x64) AppleWebKit/537.36 (KHTML, like Gecko) Chrome/93.0.4577.82 Safari/537.36" etag="-VWTf9TNZwmebowS1Wne" version="15.2.9" type="github">
  <diagram id="IYFGjWPotY_9hT47-ukf" name="Page-1">
    <mxGraphModel dx="868" dy="433" grid="1" gridSize="10" guides="1" tooltips="1" connect="1" arrows="1" fold="1" page="1" pageScale="1" pageWidth="850" pageHeight="1100" math="0" shadow="0">
      <root>
        <mxCell id="0" />
        <mxCell id="1" parent="0" />
        <mxCell id="p7LllIaoXLvoQyA2YvWe-15" value="set for" style="edgeStyle=orthogonalEdgeStyle;rounded=0;orthogonalLoop=1;jettySize=auto;html=1;exitX=1;exitY=0.5;exitDx=0;exitDy=0;dashed=1;startArrow=none;startFill=0;endArrow=none;endFill=0;" edge="1" parent="1" source="p7LllIaoXLvoQyA2YvWe-1">
          <mxGeometry x="-0.2" y="-10" relative="1" as="geometry">
            <mxPoint x="350" y="270" as="targetPoint" />
            <mxPoint as="offset" />
          </mxGeometry>
        </mxCell>
        <mxCell id="p7LllIaoXLvoQyA2YvWe-1" value="CLEANING&amp;nbsp;&lt;br&gt;COMPANY" style="rounded=1;whiteSpace=wrap;html=1;" vertex="1" parent="1">
          <mxGeometry x="180" y="240" width="120" height="60" as="geometry" />
        </mxCell>
        <mxCell id="p7LllIaoXLvoQyA2YvWe-13" value="follow on" style="edgeStyle=orthogonalEdgeStyle;rounded=0;orthogonalLoop=1;jettySize=auto;html=1;exitX=0;exitY=0.5;exitDx=0;exitDy=0;dashed=1;startArrow=none;startFill=0;endArrow=none;endFill=0;" edge="1" parent="1" source="p7LllIaoXLvoQyA2YvWe-2">
          <mxGeometry x="0.2" y="10" relative="1" as="geometry">
            <mxPoint x="410" y="270" as="targetPoint" />
            <mxPoint as="offset" />
          </mxGeometry>
        </mxCell>
        <mxCell id="p7LllIaoXLvoQyA2YvWe-2" value="CLEANING&lt;br&gt;SERVICE" style="rounded=1;whiteSpace=wrap;html=1;" vertex="1" parent="1">
          <mxGeometry x="460" y="240" width="120" height="60" as="geometry" />
        </mxCell>
        <mxCell id="p7LllIaoXLvoQyA2YvWe-12" value="for" style="edgeStyle=orthogonalEdgeStyle;rounded=0;orthogonalLoop=1;jettySize=auto;html=1;exitX=0.75;exitY=1;exitDx=0;exitDy=0;startArrow=ERoneToMany;startFill=0;endArrow=none;endFill=0;" edge="1" parent="1" source="p7LllIaoXLvoQyA2YvWe-3">
          <mxGeometry x="-0.8333" y="20" relative="1" as="geometry">
            <mxPoint x="410" y="270" as="targetPoint" />
            <mxPoint as="offset" />
          </mxGeometry>
        </mxCell>
        <mxCell id="p7LllIaoXLvoQyA2YvWe-14" value="for" style="edgeStyle=orthogonalEdgeStyle;rounded=0;orthogonalLoop=1;jettySize=auto;html=1;exitX=0.25;exitY=1;exitDx=0;exitDy=0;startArrow=ERoneToMany;startFill=0;endArrow=none;endFill=0;" edge="1" parent="1" source="p7LllIaoXLvoQyA2YvWe-3">
          <mxGeometry x="-0.8333" y="-20" relative="1" as="geometry">
            <mxPoint x="350" y="270" as="targetPoint" />
            <mxPoint as="offset" />
          </mxGeometry>
        </mxCell>
        <mxCell id="p7LllIaoXLvoQyA2YvWe-3" value="CLEANING&lt;br&gt;SCHEDULE" style="rounded=1;whiteSpace=wrap;html=1;" vertex="1" parent="1">
          <mxGeometry x="320" y="90" width="120" height="60" as="geometry" />
        </mxCell>
      </root>
    </mxGraphModel>
  </diagram>
</mxfile>
